<svg width="637.12" height="221.27" version="1.1" viewBox="0 0 168.57 58.544" xmlns="http://www.w3.org/2000/svg">
  <title>Rossbyn Games</title>
  <g transform="translate(-27.103 -90.627)">
    <g transform="matrix(.69376 0 0 .69376 -68.078 30.554)">
      <path d="m166.38 86.591c-22.639 0.168-29.184 24.356-29.184 24.356s12.97-20.044 30.532-15.949l12.101 7.6952 2.2961-1.1171-14.087-14.956c-0.56201-0.02431-1.1146-0.03427-1.658-0.03024zm58.14 0c-0.54334-4e-3 -1.096 0.0059-1.658 0.03024l-14.087 14.956 2.2961 1.1171 12.101-7.6952c17.562-4.0957 30.532 15.949 30.532 15.949s-6.545-24.188-29.184-24.356zm-29.07 15.564c-9.1236 0-18.246 3.9912-20.049 5.7445-1.8023 1.7533-0.89149 2.8743 0.76791 3.2692 1.7054 0.40579 6.337 1.4048 8.2589 8.185 0 0 3.1234-5.7924 11.022-7.2405 7.8985 1.4481 11.022 7.2405 11.022 7.2405 1.9219-6.7802 6.5535-7.7792 8.2589-8.185 1.6594-0.39483 2.5702-1.5158 0.7679-3.2692-1.8023-1.7533-10.925-5.7445-20.049-5.7445zm-4.2204 14.522s-3.5499-4e-3 -6.3734 4.8669c0 0-0.0289 4.5397-0.80464 6.1532l7.5731 7.2784s1.3023-1.2066 3.8254-1.1408c2.5232-0.0658 3.8257 1.1408 3.8257 1.1408l7.5731-7.2784c-0.77571-1.6135-0.80463-6.1532-0.80463-6.1532-2.8236-4.8715-6.3734-4.8669-6.3734-4.8669l-2.3258 3.0277s-0.71993-0.43867-1.8948-0.43867-1.8948 0.43867-1.8948 0.43867zm-8.1192 12.698s-0.45454 1.3385-2.9557 2.4355c0 0 3.124 12.339 14.568 17.779-3.3349-4.1248-3.5372-7.0744-3.5372-7.0744s0.65135 1.024 2.6992 1.5514c-1.4919-2.8084 6e-3 -8.1204 6e-3 -8.1204-1.7878-0.2542-3.0769 1.0837-3.0769 1.0837zm24.68 0-7.7038 7.6547s-1.2891-1.3379-3.0769-1.0837c0 0 1.4982 5.3121 6e-3 8.1204 2.0479-0.52748 2.6994-1.5514 2.6994-1.5514s-0.20225 2.9496-3.5372 7.0744c11.444-5.4397 14.568-17.779 14.568-17.779-2.5012-1.097-2.9555-2.4355-2.9555-2.4355z" fill="#ffd400"/>
      <g transform="matrix(1.1153 0 0 1.1153 -25.915 -21.825)" fill="#fff">
        <g transform="translate(.3289 -14.378)" fill="#fff">
          <path transform="matrix(.23722 0 0 .23722 23.235 19.568)" d="m569.64 496.42c-1.3381 0-2.4337 0.42586-3.2852 1.2773-0.72974 0.85148-1.0938 1.9451-1.0938 3.2832v15.875h51.09c7.2986 0 12.773 1.7034 16.422 5.1094 3.6493 3.2844 5.4727 8.0286 5.4727 14.232s-1.8234 10.946-5.4727 14.23c-3.6493 3.1627-9.1233 4.7441-16.422 4.7441h-51.09v147.27c0 1.2164 0.42582 2.25 1.2774 3.1016 0.85148 0.85148 1.8851 1.2773 3.1016 1.2773h16.787c1.3381 0 2.4317-0.42586 3.2832-1.2773 0.85148-0.85153 1.2773-1.8852 1.2773-3.1016v-126.47h24.998l23.355 43.242c0.85148 1.4597 1.8251 2.6772 2.9199 3.6504 1.0948 0.85149 2.6142 1.2774 4.5606 1.2774h16.787c0.97314 0 1.8249-0.36584 2.5547-1.0957 0.85152-0.72986 1.2773-1.6415 1.2773-2.7363 0-0.60821-0.18182-1.278-0.54688-2.0078l-26.459-46.527c7.6635-2.6762 13.625-6.9946 17.883-12.955 4.2575-6.0822 6.3848-13.563 6.3848-22.443 0-12.772-4.2564-22.625-12.771-29.559-8.3934-6.9336-20.071-10.4-35.033-10.4z"/>
          <path d="m227.07 168.06q-3.8956 0-6.6658-1.1687t-4.1986-3.0732-1.515-4.1553q0-0.34628 0.25971-0.60598 0.25971-0.303 0.64927-0.303h3.9389q0.47613 0 0.77912 0.21643 0.30299 0.21642 0.5627 0.60598 0.43284 1.4717 1.9478 2.4672 1.5582 0.99554 4.2419 0.99554 3.0299 0 4.5449-0.99554 1.5582-1.0388 1.5582-2.8135 0-1.1687-0.77913-1.9478-0.77912-0.77912-2.3806-1.3418-1.5582-0.60598-4.6747-1.4284-5.1076-1.212-7.4882-3.203-2.3806-1.9911-2.3806-5.7136 0-2.5105 1.3851-4.4583 1.3851-1.9911 3.9389-3.1165 2.5971-1.1254 6.0165-1.1254 3.5926 0 6.1897 1.2552 2.6404 1.2552 3.9822 3.1598 1.3851 1.8612 1.4717 3.7225 0 0.34627-0.2597 0.64927-0.25971 0.2597-0.64927 0.2597h-4.112q-0.95226 0-1.2985-0.77912-0.21642-1.3851-1.6881-2.2941-1.4717-0.95226-3.6359-0.95226-2.3806 0-3.7658 0.90898-1.3418 0.90897-1.3418 2.6404 0 1.1687 0.69256 1.9478 0.69255 0.77912 2.1642 1.3851 1.4717 0.5627 4.2852 1.2985 3.8523 0.86569 6.1031 1.9478 2.2941 1.0821 3.3762 2.7269t1.0821 4.1986q0 2.8135-1.5582 4.8912-1.515 2.0344-4.3284 3.1165-2.7702 1.0821-6.4494 1.0821z"/>
          <path d="m254.88 168.06q-3.8956 0-6.6658-1.1687t-4.1986-3.0732-1.515-4.1553q0-0.34628 0.2597-0.60598 0.25971-0.303 0.64927-0.303h3.9389q0.47613 0 0.77912 0.21643 0.30299 0.21642 0.5627 0.60598 0.43284 1.4717 1.9478 2.4672 1.5582 0.99554 4.2419 0.99554 3.0299 0 4.5449-0.99554 1.5582-1.0388 1.5582-2.8135 0-1.1687-0.77912-1.9478-0.77913-0.77912-2.3806-1.3418-1.5582-0.60598-4.6747-1.4284-5.1076-1.212-7.4882-3.203-2.3806-1.9911-2.3806-5.7136 0-2.5105 1.3851-4.4583 1.3851-1.9911 3.9389-3.1165 2.5971-1.1254 6.0166-1.1254 3.5926 0 6.1897 1.2552 2.6404 1.2552 3.9822 3.1598 1.3851 1.8612 1.4717 3.7225 0 0.34627-0.25971 0.64927-0.25971 0.2597-0.64927 0.2597h-4.112q-0.95226 0-1.2985-0.77912-0.21642-1.3851-1.6881-2.2941-1.4717-0.95226-3.6359-0.95226-2.3806 0-3.7658 0.90898-1.3418 0.90897-1.3418 2.6404 0 1.1687 0.69256 1.9478 0.69255 0.77912 2.1642 1.3851 1.4717 0.5627 4.2852 1.2985 3.8523 0.86569 6.1031 1.9478 2.2941 1.0821 3.3762 2.7269t1.0821 4.1986q0 2.8135-1.5582 4.8912-1.515 2.0344-4.3284 3.1165-2.7702 1.0821-6.4494 1.0821z"/>
          <path d="m273.17 167.63q-0.43285 0-0.73584-0.30299-0.30299-0.303-0.30299-0.73584v-28.178q0-0.47613 0.25971-0.77912 0.30299-0.30299 0.77912-0.30299h12.552q5.0643 0 7.5748 2.2508 2.5105 2.2075 2.5105 6.0598 0 2.2508-1.1254 3.8523-1.0821 1.5582-2.5538 2.2508 1.818 0.8224 3.0732 2.6836 1.2552 1.8612 1.2552 4.2419 0 4.0254-2.7269 6.4927-2.7269 2.4672-7.6181 2.4672zm11.773-17.876q2.2075 0 3.3762-1.0821 1.212-1.0821 1.212-2.9001 0-1.8179-1.1687-2.8135-1.1687-0.99554-3.4195-0.99554h-6.7091v7.7912zm0.43285 13.245q2.2508 0 3.506-1.212 1.2552-1.2552 1.2552-3.1598t-1.2985-3.1165q-1.2552-1.2552-3.4628-1.2552h-7.142v8.7435z"/>
          <path d="m309.88 167.63q-0.43284 0-0.73583-0.30299-0.303-0.303-0.303-0.73584v-9.739l-10.258-18.136q-0.12986-0.38956-0.12986-0.47613 0-0.38956 0.25971-0.64927 0.30299-0.2597 0.64927-0.2597h3.8956q0.82241 0 1.3418 0.8224l7.2718 12.553 7.3151-12.553q0.17314-0.30299 0.47613-0.5627 0.34627-0.2597 0.8224-0.2597h3.8956q0.38956 0 0.64927 0.2597 0.2597 0.25971 0.2597 0.64927 0 0.25971-0.12985 0.47613l-10.215 18.136v9.739q0 0.47613-0.30299 0.77912-0.30299 0.25971-0.77912 0.25971z"/>
          <path d="m330.66 167.63q-0.43285 0-0.73584-0.30299-0.30299-0.303-0.30299-0.73584v-28.178q0-0.47613 0.2597-0.77912 0.303-0.30299 0.77913-0.30299h3.3762q0.8224 0 1.2552 0.73583l12.379 19.218v-18.872q0-0.47613 0.25971-0.77912 0.30299-0.30299 0.77912-0.30299h3.7225q0.47613 0 0.77912 0.30299t0.30299 0.77912v28.135q0 0.47613-0.30299 0.77913-0.30299 0.30299-0.73584 0.30299h-3.4195q-0.86569 0-1.2985-0.73584l-12.336-18.785v18.482q0 0.43284-0.30299 0.73584-0.25971 0.30299-0.73584 0.30299z"/>
          <path d="m174.05 187.22q-2.9374 0-4.5764-1.5113-1.6177-1.5113-1.7241-4.2146-0.0213-0.6173-0.0213-1.9796t0.0213-1.9796q0.0851-2.6394 1.7454-4.1294 1.6603-1.5113 4.5552-1.5113 1.9583 0 3.3632 0.68115 1.4262 0.65985 2.1499 1.6603 0.72372 0.97915 0.76628 1.937 0 0.19158-0.1277 0.31929-0.12771 0.12772-0.34058 0.12772h-2.235q-0.21285 0-0.31928-0.0851-0.10639-0.0851-0.19157-0.27673-0.298-0.78756-1.043-1.341-0.745-0.55343-2.0222-0.55343-1.49 0-2.3414 0.80886-0.83014 0.78758-0.87271 2.4692-0.0212 0.61729-0.0212 1.8732 0 1.2346 0.0212 1.8731 0.0426 1.7242 0.89401 2.5543 0.85142 0.80885 2.3414 0.80885 1.5113 0 2.4266-0.80885 0.91528-0.80886 0.91528-2.4266v-0.65986h-2.5969q-0.21286 0-0.36186-0.149t-0.149-0.36185v-1.1707q0-0.21286 0.149-0.36186 0.149-0.14901 0.36186-0.14901h5.1086q0.23413 0 0.38314 0.14901 0.149 0.149 0.149 0.36186v2.2563q0 1.7667-0.78758 3.0864-0.78757 1.2984-2.235 2.0009-1.4474 0.70244-3.3844 0.70244z"/>
          <path d="m181.91 187.01q-0.19158 0-0.31929-0.12772-0.12772-0.12771-0.12772-0.31929l0.0426-0.19158 5.1086-13.729q0.21288-0.53214 0.76629-0.53214h2.3414q0.55343 0 0.76629 0.53214l5.1086 13.729 0.0426 0.19158q0 0.19158-0.14899 0.31929-0.12773 0.12772-0.29801 0.12772h-1.8944q-0.447 0-0.61729-0.40443l-0.97914-2.5756h-6.3006l-0.97915 2.5756q-0.17028 0.40443-0.61729 0.40443zm4.2359-5.4492h4.8106l-2.4053-6.556z"/>
          <path d="m198.1 187.01q-0.21286 0-0.36187-0.14901-0.14898-0.149-0.14898-0.36185v-13.857q0-0.23416 0.12771-0.38315 0.149-0.14899 0.38314-0.14899h1.7242q0.40443 0 0.63858 0.40442l4.1082 7.6203 4.1082-7.6203q0.23415-0.40442 0.63857-0.40442h1.7029q0.23415 0 0.38315 0.14899 0.14899 0.14899 0.14899 0.38315v13.857q0 0.23414-0.14899 0.38314-0.149 0.12772-0.38315 0.12772h-1.8306q-0.21286 0-0.36187-0.14901-0.149-0.149-0.149-0.36185v-9.1529l-2.9587 5.6194q-0.23413 0.46828-0.70243 0.46828h-0.89401q-0.44699 0-0.7237-0.46828l-2.9587-5.6194v9.1529q0 0.21285-0.149 0.36185-0.12772 0.14901-0.36186 0.14901z"/>
          <path d="m215.39 187.01q-0.21286 0-0.36185-0.14901-0.149-0.149-0.149-0.36185v-13.857q0-0.23416 0.12771-0.38315 0.14901-0.14899 0.38314-0.14899h9.387q0.23414 0 0.38314 0.14899 0.14901 0.14899 0.14901 0.38315v1.4262q0 0.23413-0.14901 0.38314-0.149 0.1277-0.38314 0.1277h-6.9817v3.725h6.5134q0.23415 0 0.38315 0.149 0.149 0.14901 0.149 0.38314v1.341q0 0.23414-0.149 0.38315-0.149 0.1277-0.38315 0.1277h-6.5134v3.8527h7.152q0.23415 0 0.38314 0.149 0.14901 0.12773 0.14901 0.36186v1.4474q0 0.23414-0.14901 0.38314-0.14899 0.12772-0.38314 0.12772z"/>
          <path d="m233.34 187.22q-1.9157 0-3.278-0.57472-1.3623-0.57471-2.0647-1.5113-0.70243-0.93657-0.74499-2.0434 0-0.17029 0.12771-0.29799 0.12771-0.14901 0.31929-0.14901h1.937q0.23415 0 0.38315 0.10639 0.14901 0.10639 0.27672 0.29799 0.21285 0.72372 0.95787 1.2133 0.76628 0.48958 2.086 0.48958 1.49 0 2.235-0.48958 0.76629-0.51086 0.76629-1.3836 0-0.57471-0.38315-0.95786-0.38314-0.38314-1.1707-0.65986-0.76629-0.298-2.2989-0.70243-2.5117-0.59601-3.6824-1.5751-1.1707-0.97916-1.1707-2.8097 0-1.2346 0.68115-2.1924 0.68114-0.97915 1.937-1.5326 1.2772-0.55344 2.9587-0.55344 1.7667 0 3.0439 0.61729 1.2984 0.61729 1.9583 1.5539 0.68115 0.91529 0.72372 1.8306 0 0.17028-0.12772 0.31928-0.1277 0.12773-0.31929 0.12773h-2.0222q-0.46828 0-0.63856-0.38315-0.1064-0.68115-0.83015-1.1281-0.72372-0.46829-1.788-0.46829-1.1707 0-1.8518 0.44699-0.65987 0.44701-0.65987 1.2984 0 0.57473 0.34058 0.95788 0.34056 0.38314 1.0643 0.68113 0.72372 0.27672 2.1073 0.63857 1.8944 0.42572 3.0013 0.95787 1.1281 0.53214 1.6603 1.341 0.53214 0.80888 0.53214 2.0647 0 1.3836-0.76629 2.4053-0.74499 1.0004-2.1286 1.5326-1.3623 0.53215-3.1716 0.53215z"/>
        </g>
      </g>
    </g>
  </g>
</svg>
